<?xml version="1.0" encoding="UTF-8"?>
<!--Generator: Apple Native CoreSVG 341-->
<!DOCTYPE svg
PUBLIC "-//W3C//DTD SVG 1.1//EN"
       "http://www.w3.org/Graphics/SVG/1.1/DTD/svg11.dtd">
<svg version="1.1" xmlns="http://www.w3.org/2000/svg" xmlns:xlink="http://www.w3.org/1999/xlink" viewBox="0 0 301.367 214.551">
 <g>
  <rect height="214.551" opacity="0" width="301.367" x="0" y="0"/>
  <path d="M150.684 122.656C154.883 122.656 158.984 120.996 163.184 117.188L288.086 6.64062C281.641 2.14844 273.828 0.0976562 263.281 0.0976562L37.9883 0.0976562C27.4414 0.0976562 19.7266 2.14844 13.1836 6.64062L138.184 117.188C142.383 120.996 146.387 122.656 150.684 122.656ZM3.90625 196.094L97.5586 102.539L3.51562 19.3359C1.66016 22.3633 0 29.0039 0 37.6953L0 176.855C0 185.156 1.46484 191.309 3.90625 196.094ZM35.0586 214.551L266.309 214.551C275.879 214.551 282.812 212.207 287.5 208.887L191.699 113.086L172.852 129.785C165.723 136.035 158.301 139.16 150.684 139.16C142.969 139.16 135.645 136.035 128.516 129.785L109.668 113.086L13.7695 208.887C18.457 212.207 25.4883 214.551 35.0586 214.551ZM297.461 196.094C299.902 191.309 301.367 185.156 301.367 176.855L301.367 37.6953C301.367 29.0039 299.609 22.3633 297.754 19.3359L203.711 102.539Z" fill="hsl(0, 0%, 90%)" fill-opacity="1"/>
 </g>
</svg>
